{
    "asset" : {
        "generator" : "Khronos glTF Blender I/O v1.3.48",
        "version" : "2.0"
    },
    "scene" : 0,
    "scenes" : [
        {
            "name" : "Scene",
            "nodes" : [
                0,
                1,
                2,
                3,
                4,
                5,
                6
            ]
        }
    ],
    "nodes" : [
        {
            "mesh" : 0,
            "name" : "InnerCircle",
            "rotation" : [
                -0.7071068286895752,
                0,
                0,
                -0.7071068286895752
            ],
            "scale" : [
                7.979696273803711,
                7.979696273803711,
                7.979696273803711
            ],
            "translation" : [
                0.09448845684528351,
                -0.05773506313562393,
                0.43867066502571106
            ]
        },
        {
            "mesh" : 1,
            "name" : "OuterCircle",
            "rotation" : [
                0.604704737663269,
                -0.36651358008384705,
                -0.36651355028152466,
                0.604704737663269
            ],
            "scale" : [
                6.775199890136719,
                6.775200366973877,
                6.775199890136719
            ],
            "translation" : [
                0.01922735571861267,
                -0.001780012622475624,
                0.9222179651260376
            ]
        },
        {
            "mesh" : 2,
            "name" : "MeshLogo",
            "rotation" : [
                0.7071068286895752,
                0,
                0,
                0.7071068286895752
            ],
            "scale" : [
                7.636528491973877,
                7.636528491973877,
                7.636528491973877
            ],
            "translation" : [
                0.09448845684528351,
                -0.03851050138473511,
                0.3605285584926605
            ]
        },
        {
            "mesh" : 3,
            "name" : "MeshLogo.001",
            "rotation" : [
                0.7071068286895752,
                0,
                0,
                0.7071068286895752
            ],
            "scale" : [
                7.636528491973877,
                7.636528491973877,
                7.636528491973877
            ],
            "translation" : [
                0.09448845684528351,
                -0.03851050138473511,
                0.3605285584926605
            ]
        },
        {
            "mesh" : 4,
            "name" : "MeshLogo.002",
            "rotation" : [
                0.7071068286895752,
                0,
                0,
                0.7071068286895752
            ],
            "scale" : [
                7.636528491973877,
                7.636528491973877,
                7.636528491973877
            ],
            "translation" : [
                0.09448845684528351,
                -0.03851050138473511,
                0.3605285584926605
            ]
        },
        {
            "mesh" : 5,
            "name" : "MeshLogo.003",
            "rotation" : [
                0.7071068286895752,
                0,
                0,
                0.7071068286895752
            ],
            "scale" : [
                7.636528491973877,
                7.636528491973877,
                7.636528491973877
            ],
            "translation" : [
                0.09448845684528351,
                -0.03851050138473511,
                0.3605285584926605
            ]
        },
        {
            "mesh" : 6,
            "name" : "MeshLogo.004",
            "rotation" : [
                0.7071068286895752,
                0,
                0,
                0.7071068286895752
            ],
            "scale" : [
                7.636528491973877,
                7.636528491973877,
                7.636528491973877
            ],
            "translation" : [
                0.09448845684528351,
                -0.03851050138473511,
                0.3605285584926605
            ]
        }
    ],
    "animations" : [
        {
            "channels" : [
                {
                    "sampler" : 0,
                    "target" : {
                        "node" : 0,
                        "path" : "translation"
                    }
                },
                {
                    "sampler" : 1,
                    "target" : {
                        "node" : 0,
                        "path" : "rotation"
                    }
                }
            ],
            "name" : "InnerCircleAction",
            "samplers" : [
                {
                    "input" : 27,
                    "interpolation" : "LINEAR",
                    "output" : 28
                },
                {
                    "input" : 27,
                    "interpolation" : "LINEAR",
                    "output" : 29
                }
            ]
        },
        {
            "channels" : [
                {
                    "sampler" : 0,
                    "target" : {
                        "node" : 1,
                        "path" : "translation"
                    }
                },
                {
                    "sampler" : 1,
                    "target" : {
                        "node" : 1,
                        "path" : "rotation"
                    }
                }
            ],
            "name" : "OuterCircleAction",
            "samplers" : [
                {
                    "input" : 27,
                    "interpolation" : "LINEAR",
                    "output" : 30
                },
                {
                    "input" : 27,
                    "interpolation" : "LINEAR",
                    "output" : 31
                }
            ]
        }
    ],
    "materials" : [
        {
            "doubleSided" : true,
            "emissiveFactor" : [
                0,
                0.9712815880775452,
                1
            ],
            "name" : "Material.001",
            "pbrMetallicRoughness" : {
                "baseColorFactor" : [
                    0.0368894599378109,
                    1.0000001192092896,
                    1.0000001192092896,
                    1
                ],
                "metallicFactor" : 0,
                "roughnessFactor" : 0.5
            }
        },
        {
            "doubleSided" : true,
            "emissiveFactor" : [
                0,
                0,
                0
            ],
            "name" : "Material.013",
            "pbrMetallicRoughness" : {
                "baseColorTexture" : {
                    "index" : 0,
                    "texCoord" : 0
                },
                "metallicFactor" : 0,
                "roughnessFactor" : 0.5
            }
        },
        {
            "doubleSided" : true,
            "emissiveFactor" : [
                0,
                0,
                0
            ],
            "name" : "Material.005",
            "pbrMetallicRoughness" : {
                "baseColorTexture" : {
                    "index" : 1,
                    "texCoord" : 0
                },
                "metallicFactor" : 0,
                "roughnessFactor" : 0.5
            }
        },
        {
            "doubleSided" : true,
            "emissiveFactor" : [
                0,
                0,
                0
            ],
            "name" : "Material.006",
            "pbrMetallicRoughness" : {
                "metallicFactor" : 0,
                "roughnessFactor" : 0.5
            }
        },
        {
            "doubleSided" : true,
            "emissiveFactor" : [
                0,
                0,
                0
            ],
            "name" : "Material.008",
            "pbrMetallicRoughness" : {
                "baseColorFactor" : [
                    0.5647116899490356,
                    0.3613068759441376,
                    0.6938719749450684,
                    1
                ],
                "metallicFactor" : 0,
                "roughnessFactor" : 0.5
            }
        },
        {
            "doubleSided" : true,
            "emissiveFactor" : [
                0.034289270639419556,
                0.026649290695786476,
                0.0396793968975544
            ],
            "name" : "Material.009",
            "pbrMetallicRoughness" : {
                "baseColorFactor" : [
                    0.6297580599784851,
                    0.4435710906982422,
                    0.8549931645393372,
                    1
                ],
                "metallicFactor" : 0,
                "roughnessFactor" : 0.5
            }
        }
    ],
    "meshes" : [
        {
            "name" : "InnerCircle",
            "primitives" : [
                {
                    "attributes" : {
                        "POSITION" : 0,
                        "NORMAL" : 1,
                        "TEXCOORD_0" : 2
                    },
                    "indices" : 3,
                    "material" : 0
                }
            ]
        },
        {
            "name" : "OuterCircle",
            "primitives" : [
                {
                    "attributes" : {
                        "POSITION" : 4,
                        "NORMAL" : 5,
                        "TEXCOORD_0" : 6
                    },
                    "indices" : 7,
                    "material" : 0
                }
            ]
        },
        {
            "name" : "MeshLogo",
            "primitives" : [
                {
                    "attributes" : {
                        "POSITION" : 8,
                        "NORMAL" : 9,
                        "TEXCOORD_0" : 10
                    },
                    "indices" : 11,
                    "material" : 1
                }
            ]
        },
        {
            "name" : "MeshLogo.001",
            "primitives" : [
                {
                    "attributes" : {
                        "POSITION" : 12,
                        "NORMAL" : 13,
                        "TEXCOORD_0" : 14
                    },
                    "indices" : 15,
                    "material" : 2
                }
            ]
        },
        {
            "name" : "MeshLogo.002",
            "primitives" : [
                {
                    "attributes" : {
                        "POSITION" : 16,
                        "NORMAL" : 17,
                        "TEXCOORD_0" : 18
                    },
                    "indices" : 19,
                    "material" : 3
                }
            ]
        },
        {
            "name" : "MeshLogo.003",
            "primitives" : [
                {
                    "attributes" : {
                        "POSITION" : 20,
                        "NORMAL" : 21,
                        "TEXCOORD_0" : 22
                    },
                    "indices" : 23,
                    "material" : 4
                }
            ]
        },
        {
            "name" : "MeshLogo.004",
            "primitives" : [
                {
                    "attributes" : {
                        "POSITION" : 24,
                        "NORMAL" : 25,
                        "TEXCOORD_0" : 26
                    },
                    "indices" : 23,
                    "material" : 5
                }
            ]
        }
    ],
    "textures" : [
        {
            "source" : 0
        },
        {
            "source" : 1
        }
    ],
    "images" : [
        {
            "bufferView" : 12,
            "mimeType" : "image/png",
            "name" : "Untitled"
        },
        {
            "bufferView" : 17,
            "mimeType" : "image/png",
            "name" : "Untitled"
        }
    ],
    "accessors" : [
        {
            "bufferView" : 0,
            "componentType" : 5126,
            "count" : 762,
            "max" : [
                0.9569085240364075,
                0.01958612911403179,
                0.9479661583900452
            ],
            "min" : [
                -0.9569085240364075,
                -3.9088488001937094e-10,
                -0.8269801735877991
            ],
            "type" : "VEC3"
        },
        {
            "bufferView" : 1,
            "componentType" : 5126,
            "count" : 762,
            "type" : "VEC3"
        },
        {
            "bufferView" : 2,
            "componentType" : 5126,
            "count" : 762,
            "type" : "VEC2"
        },
        {
            "bufferView" : 3,
            "componentType" : 5123,
            "count" : 1188,
            "type" : "SCALAR"
        },
        {
            "bufferView" : 4,
            "componentType" : 5126,
            "count" : 772,
            "max" : [
                0.9569085240364075,
                0.023068159818649292,
                0.9479661583900452
            ],
            "min" : [
                -0.9569085240364075,
                -3.9088488001937094e-10,
                -0.8269801735877991
            ],
            "type" : "VEC3"
        },
        {
            "bufferView" : 5,
            "componentType" : 5126,
            "count" : 772,
            "type" : "VEC3"
        },
        {
            "bufferView" : 6,
            "componentType" : 5126,
            "count" : 772,
            "type" : "VEC2"
        },
        {
            "bufferView" : 7,
            "componentType" : 5123,
            "count" : 1188,
            "type" : "SCALAR"
        },
        {
            "bufferView" : 8,
            "componentType" : 5126,
            "count" : 2560,
            "max" : [
                0.5810776948928833,
                0.27839571237564087,
                0.5862300992012024
            ],
            "min" : [
                -0.5943831205368042,
                0.1861928552389145,
                -0.5892308354377747
            ],
            "type" : "VEC3"
        },
        {
            "bufferView" : 9,
            "componentType" : 5126,
            "count" : 2560,
            "type" : "VEC3"
        },
        {
            "bufferView" : 10,
            "componentType" : 5126,
            "count" : 2560,
            "type" : "VEC2"
        },
        {
            "bufferView" : 11,
            "componentType" : 5123,
            "count" : 3072,
            "type" : "SCALAR"
        },
        {
            "bufferView" : 13,
            "componentType" : 5126,
            "count" : 268,
            "max" : [
                0.993035614490509,
                0.1412787139415741,
                0.993035614490509
            ],
            "min" : [
                -0.993035614490509,
                -3.5468464933331072e-15,
                -0.993035614490509
            ],
            "type" : "VEC3"
        },
        {
            "bufferView" : 14,
            "componentType" : 5126,
            "count" : 268,
            "type" : "VEC3"
        },
        {
            "bufferView" : 15,
            "componentType" : 5126,
            "count" : 268,
            "type" : "VEC2"
        },
        {
            "bufferView" : 16,
            "componentType" : 5123,
            "count" : 780,
            "type" : "SCALAR"
        },
        {
            "bufferView" : 18,
            "componentType" : 5126,
            "count" : 512,
            "max" : [
                0.7232827544212341,
                0.1822369545698166,
                0.7231566309928894
            ],
            "min" : [
                -0.7239623665809631,
                0.13735979795455933,
                -0.7240885496139526
            ],
            "type" : "VEC3"
        },
        {
            "bufferView" : 19,
            "componentType" : 5126,
            "count" : 512,
            "type" : "VEC3"
        },
        {
            "bufferView" : 20,
            "componentType" : 5126,
            "count" : 512,
            "type" : "VEC2"
        },
        {
            "bufferView" : 21,
            "componentType" : 5123,
            "count" : 768,
            "type" : "SCALAR"
        },
        {
            "bufferView" : 22,
            "componentType" : 5126,
            "count" : 24,
            "max" : [
                -0.20734721422195435,
                0.2717438340187073,
                -0.0939677506685257
            ],
            "min" : [
                -0.572860836982727,
                0.25127753615379333,
                -0.35577741265296936
            ],
            "type" : "VEC3"
        },
        {
            "bufferView" : 23,
            "componentType" : 5126,
            "count" : 24,
            "type" : "VEC3"
        },
        {
            "bufferView" : 24,
            "componentType" : 5126,
            "count" : 24,
            "type" : "VEC2"
        },
        {
            "bufferView" : 25,
            "componentType" : 5123,
            "count" : 36,
            "type" : "SCALAR"
        },
        {
            "bufferView" : 26,
            "componentType" : 5126,
            "count" : 24,
            "max" : [
                0.04945102334022522,
                0.27461448311805725,
                0.06551051884889603
            ],
            "min" : [
                -0.5756679773330688,
                0.2541481852531433,
                -0.3710293769836426
            ],
            "type" : "VEC3"
        },
        {
            "bufferView" : 27,
            "componentType" : 5126,
            "count" : 24,
            "type" : "VEC3"
        },
        {
            "bufferView" : 28,
            "componentType" : 5126,
            "count" : 24,
            "type" : "VEC2"
        },
        {
            "bufferView" : 29,
            "componentType" : 5126,
            "count" : 61,
            "max" : [
                2.5
            ],
            "min" : [
                0
            ],
            "type" : "SCALAR"
        },
        {
            "bufferView" : 30,
            "componentType" : 5126,
            "count" : 61,
            "type" : "VEC3"
        },
        {
            "bufferView" : 31,
            "componentType" : 5126,
            "count" : 61,
            "type" : "VEC4"
        },
        {
            "bufferView" : 32,
            "componentType" : 5126,
            "count" : 61,
            "type" : "VEC3"
        },
        {
            "bufferView" : 33,
            "componentType" : 5126,
            "count" : 61,
            "type" : "VEC4"
        }
    ],
    "bufferViews" : [
        {
            "buffer" : 0,
            "byteLength" : 9144,
            "byteOffset" : 0
        },
        {
            "buffer" : 0,
            "byteLength" : 9144,
            "byteOffset" : 9144
        },
        {
            "buffer" : 0,
            "byteLength" : 6096,
            "byteOffset" : 18288
        },
        {
            "buffer" : 0,
            "byteLength" : 2376,
            "byteOffset" : 24384
        },
        {
            "buffer" : 0,
            "byteLength" : 9264,
            "byteOffset" : 26760
        },
        {
            "buffer" : 0,
            "byteLength" : 9264,
            "byteOffset" : 36024
        },
        {
            "buffer" : 0,
            "byteLength" : 6176,
            "byteOffset" : 45288
        },
        {
            "buffer" : 0,
            "byteLength" : 2376,
            "byteOffset" : 51464
        },
        {
            "buffer" : 0,
            "byteLength" : 30720,
            "byteOffset" : 53840
        },
        {
            "buffer" : 0,
            "byteLength" : 30720,
            "byteOffset" : 84560
        },
        {
            "buffer" : 0,
            "byteLength" : 20480,
            "byteOffset" : 115280
        },
        {
            "buffer" : 0,
            "byteLength" : 6144,
            "byteOffset" : 135760
        },
        {
            "buffer" : 0,
            "byteLength" : 181027,
            "byteOffset" : 141904
        },
        {
            "buffer" : 0,
            "byteLength" : 3216,
            "byteOffset" : 322932
        },
        {
            "buffer" : 0,
            "byteLength" : 3216,
            "byteOffset" : 326148
        },
        {
            "buffer" : 0,
            "byteLength" : 2144,
            "byteOffset" : 329364
        },
        {
            "buffer" : 0,
            "byteLength" : 1560,
            "byteOffset" : 331508
        },
        {
            "buffer" : 0,
            "byteLength" : 434289,
            "byteOffset" : 333068
        },
        {
            "buffer" : 0,
            "byteLength" : 6144,
            "byteOffset" : 767360
        },
        {
            "buffer" : 0,
            "byteLength" : 6144,
            "byteOffset" : 773504
        },
        {
            "buffer" : 0,
            "byteLength" : 4096,
            "byteOffset" : 779648
        },
        {
            "buffer" : 0,
            "byteLength" : 1536,
            "byteOffset" : 783744
        },
        {
            "buffer" : 0,
            "byteLength" : 288,
            "byteOffset" : 785280
        },
        {
            "buffer" : 0,
            "byteLength" : 288,
            "byteOffset" : 785568
        },
        {
            "buffer" : 0,
            "byteLength" : 192,
            "byteOffset" : 785856
        },
        {
            "buffer" : 0,
            "byteLength" : 72,
            "byteOffset" : 786048
        },
        {
            "buffer" : 0,
            "byteLength" : 288,
            "byteOffset" : 786120
        },
        {
            "buffer" : 0,
            "byteLength" : 288,
            "byteOffset" : 786408
        },
        {
            "buffer" : 0,
            "byteLength" : 192,
            "byteOffset" : 786696
        },
        {
            "buffer" : 0,
            "byteLength" : 244,
            "byteOffset" : 786888
        },
        {
            "buffer" : 0,
            "byteLength" : 732,
            "byteOffset" : 787132
        },
        {
            "buffer" : 0,
            "byteLength" : 976,
            "byteOffset" : 787864
        },
        {
            "buffer" : 0,
            "byteLength" : 732,
            "byteOffset" : 788840
        },
        {
            "buffer" : 0,
            "byteLength" : 976,
            "byteOffset" : 789572
        }
    ],
    "buffers" : [
        {
            "byteLength" : 790548,
            "uri" : "data:application/octet-stream;base64,"
        }
    ]
}
