<?xml version="1.0" encoding="utf-8"?>
<!-- Generator: Adobe Illustrator 23.0.1, SVG Export Plug-In . SVG Version: 6.00 Build 0)  -->
<svg version="1.1" id="Layer_3" xmlns="http://www.w3.org/2000/svg" xmlns:xlink="http://www.w3.org/1999/xlink" x="0px" y="0px"
	 viewBox="0 0 594 840" style="enable-background:new 0 0 594 840;" xml:space="preserve">
<style type="text/css">
	.st0{fill:url(#SVGID_1_);}
	.st1{fill:url(#SVGID_2_);}
	.st2{fill:#B7825C;}
	.st3{fill:#E5BA9C;}
	.st4{fill:#A0906B;}
	.st5{fill:#EAB88C;}
	.st6{opacity:0.31;fill:#4C4B49;}
	.st7{opacity:0.32;fill:#4C4B49;}
	.st8{fill:url(#SVGID_3_);}
	.st9{fill:none;stroke:url(#SVGID_4_);stroke-width:2;stroke-miterlimit:10;}
	.st10{fill:none;stroke:url(#SVGID_5_);stroke-width:2;stroke-miterlimit:10;}
	.st11{fill:url(#SVGID_6_);}
</style>
<g>
	<linearGradient id="SVGID_1_" gradientUnits="userSpaceOnUse" x1="222.723" y1="660.6595" x2="277.6851" y2="660.6595">
		<stop  offset="0" style="stop-color:#E73950"/>
		<stop  offset="1" style="stop-color:#AF2638"/>
	</linearGradient>
	<path class="st0" d="M223.8,577.6c0,0-2.4,28.6,0,47.7s10.6,95.3,10.6,95.3l2,1.4v3.1l-2.6,2.6l2.6,2.5v5.1l-1.9,3.1l1.9,5.4h37.4
		l1.1-4.7c0,0,1.3-2.3,2.2-2.3c0.9,0,1-2.9-0.9-3.2c-1.9-0.3-3.4-2.7-2-3.6s4-2.3,2.2-3.4c-1.8-1.1-5.1-4-3.8-5.4
		c1.3-1.4,2.7-3.6,3.1-6.1c0.4-2.6,2.2-132.8,2.2-132.8L223.8,577.6z"/>
	<linearGradient id="SVGID_2_" gradientUnits="userSpaceOnUse" x1="297.723" y1="660.6595" x2="352.6851" y2="660.6595">
		<stop  offset="0" style="stop-color:#E73950"/>
		<stop  offset="1" style="stop-color:#AF2638"/>
	</linearGradient>
	<path class="st1" d="M351.6,577.6c0,0,2.4,28.6,0,47.7c-2.4,19.1-10.6,95.3-10.6,95.3l-2,1.4v3.1l2.6,2.6l-2.6,2.5v5.1l1.9,3.1
		l-1.9,5.4h-37.4l-1.1-4.7c0,0-1.3-2.3-2.2-2.3s-1-2.9,0.9-3.2c1.9-0.3,3.4-2.7,2-3.6c-1.4-0.9-4-2.3-2.2-3.4s5.1-4,3.8-5.4
		c-1.3-1.4-2.7-3.6-3.1-6.1c-0.4-2.6-2.2-132.8-2.2-132.8L351.6,577.6z"/>
	<g>
		<path class="st2" d="M242,742.2c0,0-7.1,16.3-6.8,19.4c0.3,3.1-1.4,6.1,5.8,8.9c7.1,2.7,10.2,2.2,16.5,2.6c6.3,0.3,8.7-0.7,10.7-2
			c2-1.4,6-18.4,2.9-27.4c-3.1-9-28.6-2.2-28.6-2.2L242,742.2z"/>
		<path class="st3" d="M241.5,744.1c0,0-6.6,13.8-6.9,16.3c-0.3,2.6,2.1,8.5,6.1,8.2c4-0.3,9.8-3.7,9.5-6.6c-0.3-2.9-0.7-3-1.1-3.8
			s0.3-5.2,1.7-6c1.4-0.8,5.6-1.7,6.5,1.9s0,4,0,4s-1.2,2.8-0.7,4.3c0.5,1.4,2.3,7.1,10.4,5.7c0,0,4.3-2,5-7.3
			c0.8-5.4-0.6-18-0.6-18s1.5,1.8,2,4.7s1.6,20.9,1.3,23.2s-0.5,16.5-3.7,17.6c-2.9,1-23.4,0.4-34.2-0.1c-1.3-0.1-2.3-1-2.6-2.2
			C232.8,779.3,230.1,759,241.5,744.1z"/>
		<path class="st4" d="M235.1,787.5c0,0,7.5-10.7,17.3-10.9c0,0,15.1-1.6,18.5,11.5C270.9,788.1,238.7,789.4,235.1,787.5z"/>
	</g>
	<g>
		<path class="st2" d="M333.5,742.2c0,0,7.1,16.3,6.8,19.4c-0.3,3.1,1.4,6.1-5.8,8.9s-10.2,2.2-16.5,2.6c-6.3,0.3-8.7-0.7-10.7-2
			c-2-1.4-6-18.4-2.9-27.4c3.1-9,28.6-2.2,28.6-2.2L333.5,742.2z"/>
		<path class="st3" d="M334,744.1c0,0,6.6,13.8,6.9,16.3c0.3,2.6-2.1,8.5-6.1,8.2c-4-0.3-9.8-3.7-9.5-6.6s0.7-3,1.1-3.8
			s-0.3-5.2-1.7-6c-1.4-0.8-5.6-1.7-6.5,1.9c-0.9,3.6,0,4,0,4s1.2,2.8,0.7,4.3c-0.5,1.4-2.3,7.1-10.4,5.7c0,0-4.3-2-5-7.3
			c-0.8-5.4,0.6-18,0.6-18s-1.5,1.8-2,4.7c-0.4,2.9-1.6,20.9-1.3,23.2s0.5,16.5,3.7,17.6c2.9,1,23.4,0.4,34.2-0.1
			c1.3-0.1,2.3-1,2.6-2.2C342.7,779.3,345.4,759,334,744.1z"/>
		<path class="st4" d="M340.4,787.5c0,0-7.5-10.7-17.3-10.9c0,0-15.1-1.6-18.5,11.5C304.6,788.1,336.9,789.4,340.4,787.5z"/>
	</g>
	<g>
		<path class="st5" d="M192.5,130.3c0,0-49,109.3-43.2,151.5s57.6,136.3,57.6,136.3l18.3-26.4c0,0-30.3-79.3-30-102.5
			c0.3-23.1,12-50.8,12-50.8s-0.8-94.6-4.9-99C198.3,135,192.5,130.3,192.5,130.3L192.5,130.3"/>
		<path class="st6" d="M172.1,281.5c0,0,20.6,0,22,1.5C195.4,284.6,180,284.6,172.1,281.5z"/>
		<path class="st6" d="M173.4,289.7c0,0,18.2,0.8,19.8,0c1.6-0.8,1.5,3.6,1.5,3.6S179,294.3,173.4,289.7z"/>
	</g>
	<g>
		<path class="st5" d="M381.4,130.3c0,0,49,109.3,43.2,151.5s-55.4,138.4-55.4,138.4l-20.6-28.4c0,0,30.3-79.3,30-102.5
			c-0.3-23.1-12-50.8-12-50.8s0.8-94.6,4.9-99C375.6,135,381.4,130.3,381.4,130.3L381.4,130.3"/>
		<path class="st7" d="M401.8,281.5c0,0-20.6,0-22,1.5C378.5,284.6,393.9,284.6,401.8,281.5z"/>
		<path class="st6" d="M400.5,289.7c0,0-18.2,0.8-19.8,0c-1.6-0.8-1.5,3.6-1.5,3.6S394.9,294.3,400.5,289.7z"/>
	</g>
	<linearGradient id="SVGID_3_" gradientUnits="userSpaceOnUse" x1="192.463" y1="342.3932" x2="380.2076" y2="342.3932">
		<stop  offset="0" style="stop-color:#FFE8C0"/>
		<stop  offset="0.5867" style="stop-color:#FDDBA8"/>
		<stop  offset="1" style="stop-color:#FCD49D"/>
	</linearGradient>
	<path class="st8" d="M192.5,130.3l63.3-22.8l1.9-9.9c0,0,20.3,9.4,27.9,19.1v7.1h3.9v-7.1c0,0,21.6-19.9,28.3-20.1l2.7,10
		l59.7,23.7l-12.8,118.1c0,0-4.1,63-2.4,81l11.6,246.8c0,0-102.8,25.5-177.7,2l12.3-248.9c0,0-0.7-70.4-3.1-84.1L192.5,130.3z"/>
	
		<radialGradient id="SVGID_4_" cx="333.3342" cy="260.4497" r="109.3658" gradientTransform="matrix(1 0 0 1 -62.0379 0)" gradientUnits="userSpaceOnUse">
		<stop  offset="0" style="stop-color:#F8BB5E"/>
		<stop  offset="5.781376e-02" style="stop-color:#F7BA5D"/>
		<stop  offset="1" style="stop-color:#EBAF56"/>
	</radialGradient>
	<polyline class="st9" points="255.8,107.5 284.2,125 286.3,414.3 	"/>
	
		<radialGradient id="SVGID_5_" cx="320.0891" cy="260.4497" r="109.3658" gradientTransform="matrix(-1 0 0 1 623.9103 0)" gradientUnits="userSpaceOnUse">
		<stop  offset="0" style="stop-color:#F8BB5E"/>
		<stop  offset="5.781376e-02" style="stop-color:#F7BA5D"/>
		<stop  offset="1" style="stop-color:#EBAF56"/>
	</radialGradient>
	<polyline class="st10" points="319.3,107.5 290.9,125 288.8,414.3 	"/>
	<linearGradient id="SVGID_6_" gradientUnits="userSpaceOnUse" x1="342.2797" y1="539.4213" x2="342.2797" y2="106.7382">
		<stop  offset="0" style="stop-color:#E73950"/>
		<stop  offset="1" style="stop-color:#AF2638"/>
	</linearGradient>
	<polygon class="st11" points="320.9,106.7 320.9,539.4 363.7,539.4 363.7,123.9 	"/>
</g>
</svg>
